PathFileType	4	(X/Y/Z)	P:\Projects\LMB_grand_challenge_database\project_only\opensim\experimental_data\SixthCompetition/DM_ngait_og6_new.trc
DataRate	CameraRate	NumFrames	NumMarkers	Units	OrigDataRate	OrigDataStartFrame	OrigNumFrames
120	120	6	68	mm	120	213	342
Frame#	Time	Sternum			Neck			R_Shoulder			L_Shoulder			Xiphoid			Thoracic			R_Asis			L_Asis			R_Psis			L_Psis			Lumbar			R_Elbow			R_ElbowMedial			R_ShoulderAnterior			R_ShoulderPosterior			R_Wrist			R_Radius			R_Ulna			L_Elbow			L_ElbowMedial			L_ShoulderAnterior			L_ShoulderPosterior			L_Wrist			L_Ulna			L_Radius			L_Thigh_Superior			L_Thigh_Inferior			L_Thigh_Lateral			L_Knee_Lateral			L_Knee_Medial			L_Patella			L_Shank_Superior			L_Shank_Inferior			L_Shank_Lateral			L_Ankle_Lateral			L_Ankle_Medial			R_Thigh_Superior			R_Thigh_Inferior			R_Thigh_Lateral			R_Knee_Lateral			R_Knee_Medial			R_Patella			R_Shank_Superior			R_Shank_Inferior			R_Shank_Lateral			R_Ankle_Lateral			RankleMedial			R_Heel			R_Toe			R_Midfoot_Medial			R_Midfoot_Lateral			R_Hindfoot			R_Midfoot_Superior			R_ToeMedial			R_ToeLateral			L_Heel			L_Toe			L_Midfoot_Medial			L_Midfoot_Lateral			L_Hindfoot			L_Midfoot_Superior			L_ToeMedial			L_ToeLateral			Oglobal			Sacral			Xglobal			Yglobal			Zglobal			
		X1	Y1	Z1	X2	Y2	Z2	X3	Y3	Z3	X4	Y4	Z4	X5	Y5	Z5	X6	Y6	Z6	X7	Y7	Z7	X8	Y8	Z8	X9	Y9	Z9	X10	Y10	Z10	X11	Y11	Z11	X12	Y12	Z12	X13	Y13	Z13	X14	Y14	Z14	X15	Y15	Z15	X16	Y16	Z16	X17	Y17	Z17	X18	Y18	Z18	X19	Y19	Z19	X20	Y20	Z20	X21	Y21	Z21	X22	Y22	Z22	X23	Y23	Z23	X24	Y24	Z24	X25	Y25	Z25	X26	Y26	Z26	X27	Y27	Z27	X28	Y28	Z28	X29	Y29	Z29	X30	Y30	Z30	X31	Y31	Z31	X32	Y32	Z32	X33	Y33	Z33	X34	Y34	Z34	X35	Y35	Z35	X36	Y36	Z36	X37	Y37	Z37	X38	Y38	Z38	X39	Y39	Z39	X40	Y40	Z40	X41	Y41	Z41	X42	Y42	Z42	X43	Y43	Z43	X44	Y44	Z44	X45	Y45	Z45	X46	Y46	Z46	X47	Y47	Z47	X48	Y48	Z48	X49	Y49	Z49	X50	Y50	Z50	X51	Y51	Z51	X52	Y52	Z52	X53	Y53	Z53	X54	Y54	Z54	X55	Y55	Z55	X56	Y56	Z56	X57	Y57	Z57	X58	Y58	Z58	X59	Y59	Z59	X60	Y60	Z60	X61	Y61	Z61	X62	Y62	Z62	X63	Y63	Z63	X64	Y64	Z64	X65	Y65	Z65	X66	Y66	Z66	X67	Y67	Z67	X68	Y68	Z68	

214	4.183333	590.691	1447.68	154.927	742.197	1351.64	155.225	672.8680000000001	1390.68	326.56	659.194	1400.76	-13.6634	751.8150000000001	1188.16	160.032	486.389	1260.33	155.165	664.16	958.918	293.34	678.812	973.0839999999999	18.8792	467.448	1008.02	178.288	468.878	1006.23	99.5552	471.129	1056.34	144.2	573.373	1097.04	437.683	-0	0	0	-0	0	0	-0	0	0	637.018	822.206	437.199	641.049	832.823	393.038	589.807	828.068	443.811	774.985	1089.3	-90.94889999999999	-0	0	0	-0	0	0	-0	0	0	989.246	939.157	-30.4263	954.282	913.437	-48.6342	970.285	953.2329999999999	10.3897	576.333	798.316	-8.71776	541.426	580.986	42.9081	612.196	658.568	61.7559	-0	0	0	-0	0	0	542.3440000000001	479.344	107.071	454.693	441.092	40.9448	329.134	199.504	48.9936	-0	0	0	-0	0	0	-0	0	0	611.4829999999999	786.028	324.669	713.116	591.265	286.663	727.452	732.929	301.84	-0	0	0	-0	0	0	820.539	542.671	224.535	754.771	394.442	297.535	841.951	203.746	284.339	853.456	346.93	219.616	-0	0	0	-0	0	0	826.294	52.5684	224.889	1103.26	162.971	241.425	1042.22	117.914	181.036	1032.99	98.2337	296.275	930.985	53.118	278.656	953.258	168.376	241.686	1077.91	141.709	195.014	1071.68	128.974	286.564	217.915	93.4723	107.725	509.492	47.1733	91.97150000000001	432.763	35.1003	147.737	415.093	31.608	34.6806	306.857	41.2365	47.7609	388.959	125.68	92.23739999999999	473.309	32.6768	137.421	467.847	32.5228	41.2596	-0	0	0	468.163	1007.12	138.922	-200	0	0	-0	0	200	-0	200	0	
215	4.191667	599.098	1446.16	156.535	751.076	1350.68	156.876	680.95	1389.12	328.255	667.71	1399.76	-12.0685	761.002	1187.28	161.35	496.336	1258	156.777	675.096	958.304	294.257	688.875	972.037	19.7837	477.725	1006.06	179.766	478.948	1004.32	100.838	481.115	1054.42	145.527	582.487	1095.17	438.954	-0	0	0	-0	0	0	-0	0	0	646.891	820.4880000000001	438.129	649.434	830.201	393.199	599.117	826.325	444.674	783.848	1088	-89.1866	-0	0	0	-0	0	0	-0	0	0	998.574	938.273	-29.0334	963.479	912.48	-47.3571	979.526	952.337	11.8872	585.069	797.394	-8.25886	548.966	580.162	43.5651	619.853	657.593	62.3124	-0	0	0	-0	0	0	548.9400000000001	477.764	107.214	460.67	441.156	40.9407	331.6	200.817	49.4217	-0	0	0	-0	0	0	-0	0	0	623.9160000000001	785.125	324.953	725.081	590.091	286.16	740.268	731.895	301.485	-0	0	0	-0	0	0	831.724	541.664	223.452	764.4880000000001	393.026	296.132	848.433	201.049	282.162	862.601	344.204	217.953	-0	0	0	-0	0	0	829.696	52.6407	223.304	1109.4	154.923	238.508	1047.84	110.553	179.98	1037.02	93.90470000000001	295.558	934.849	51.4031	278.538	959.42	164.641	238.52	1083.44	133.533	192.608	1076.73	122.789	284.371	219.151	96.40770000000001	107.636	509.831	46.7545	91.85290000000001	433.189	35.3603	147.989	415.453	31.4061	34.958	307.532	42.4466	47.8431	390.872	126.227	91.90730000000001	473.399	32.5094	137.279	467.934	32.1609	41.3711	-0	0	0	478.336	1005.19	140.302	-200	0	0	-0	0	200	-0	200	0	
216	4.2	607.514	1444.9	158.214	759.696	1349.71	158.39	689.508	1387.93	330.005	676.2329999999999	1398.54	-10.3597	770.551	1186.61	162.843	505.488	1256.43	158.181	686.359	957.606	294.853	699.138	971.596	20.4631	488.316	1004.38	181.124	489.215	1002.71	101.982	491.361	1052.77	146.9	591.403	1093.4	440.105	-0	0	0	-0	0	0	-0	0	0	656.758	818.583	438.845	658.616	828.327	393.718	608.855	824.477	445.688	792.415	1086.85	-87.55929999999999	-0	0	0	-0	0	0	-0	0	0	1007.36	937.068	-27.9755	972.204	911.133	-46.3079	988.65	951.177	12.896	594.1660000000001	796.693	-7.94566	556.821	579.513	43.876	627.946	656.466	62.8525	-0	0	0	-0	0	0	556.069	475.85	107.436	467.088	441.203	40.9371	334.625	202.75	49.2557	-0	0	0	-0	0	0	-0	0	0	636.617	783.962	324.828	737.212	588.765	285.195	753.0119999999999	730.372	301.308	-0	0	0	-0	0	0	842.795	540.676	222.482	773.609	391.309	294.832	854.627	198.366	280.132	870.804	341.174	216.433	-0	0	0	-0	0	0	832.101	52.8651	221.601	1115.34	144.658	235.716	1052.51	101.557	178.394	1040.5	87.5847	294.209	937.158	48.6692	277.602	965.379	159.66	235.329	1088.36	123.196	190.289	1081.21	114.704	282.186	220.73	99.57250000000001	107.582	510.033	46.2593	91.81059999999999	433.453	33.2546	146.547	415.007	30.1077	33.6046	308.11	44.5262	47.6135	391.705	125.104	91.1225	473.651	32.4643	137.221	468.044	31.9098	41.2761	-0	0	0	488.765	1003.55	141.553	-200	0	0	-0	0	200	-0	200	0	
217	4.208333	615.789	1443.71	159.793	768.3339999999999	1348.86	159.805	698.248	1387.14	331.979	684.567	1397.83	-8.539820000000001	780.131	1186.07	164.317	515.251	1254.43	159.857	697.932	956.87	295.179	709.465	971.114	21.0933	499.099	1002.58	182.408	499.621	1001.04	103.262	501.772	1051.02	148.289	600.585	1091.59	441.344	-0	0	0	-0	0	0	-0	0	0	666.386	816.85	439.457	669.191	827.371	395.212	618.729	822.64	446.568	801.0359999999999	1086.06	-85.7128	-0	0	0	-0	0	0	-0	0	0	1015.72	935.347	-27.0648	980.424	909.6900000000001	-45.379	997.228	949.566	13.7703	603.331	795.9349999999999	-7.4238	565.099	578.646	44.039	636.52	655.474	62.9148	-0	0	0	-0	0	0	563.972	474.246	107.298	473.915	440.864	41.1633	337.843	204.827	49.105	-0	0	0	-0	0	0	-0	0	0	649.2430000000001	782.5	324.574	748.554	587.027	284.38	765.222	728.498	301.335	-0	0	0	-0	0	0	852.8440000000001	538.398	221.12	782.401	389.32	293.572	859.874	195.206	278.149	878.418	337.831	214.656	-0	0	0	-0	0	0	834.748	52.8874	220.868	1120.92	133.612	232.968	1056.63	92.509	175.995	1044.63	80.93819999999999	292.075	938.999	45.2089	276.375	971.1369999999999	154.15	232.203	1093.25	112.163	188.488	1085.58	105.582	279.623	222.368	103.184	107.607	510.204	45.9088	91.77979999999999	433.87	33.2291	146.862	415.29	29.7112	33.9526	309.069	46.0878	47.796	393.756	125.475	90.887	473.983	32.3413	137.141	468.229	31.6832	41.0854	-0	0	0	499.36	1001.81	142.835	-200	0	0	-0	0	200	-0	200	0	
218	4.216667	624.2619999999999	1442.49	161.872	777.256	1348.44	161.541	706.446	1385.47	333.722	692.698	1397.04	-6.85844	790.141	1185.74	165.879	524.729	1252.72	161.527	709.74	956.354	295.921	720.105	970.47	21.798	510.172	1000.69	183.893	510.434	999.326	104.802	512.4450000000001	1049.24	149.751	609.978	1089.85	442.639	-0	0	0	-0	0	0	-0	0	0	676.232	814.985	440.399	679.359	825.857	396.437	628.52	820.982	447.422	809.716	1085.34	-83.8931	-0	0	0	-0	0	0	-0	0	0	1023.81	933.198	-26.4259	988.239	907.867	-44.6101	1005.59	947.533	14.4199	612.894	795.302	-7.18643	574.051	577.77	43.9987	645.899	654.353	62.3361	-0	0	0	-0	0	0	572.676	472.28	106.941	481.262	440.396	41.6315	341.253	207.036	49.1238	-0	0	0	-0	0	0	-0	0	0	661.583	780.704	324.186	759.564	584.965	283.538	776.951	726.139	301.566	-0	0	0	-0	0	0	862.835	536.231	219.606	790.755	387.19	292.179	865.0549999999999	192.161	276.699	885.904	334.191	213.286	-0	0	0	-0	0	0	837.36	53.2112	220.772	1125.92	122.833	229.945	1060.05	84.2453	173.191	1048.96	73.6267	289.453	941.578	41.3929	275.241	976.947	148.866	230.039	1097.18	102.178	186.049	1089.99	96.6006	277.07	224.37	107.234	107.663	510.434	45.51	91.8051	434.499	33.1212	146.66	415.674	29.8615	33.784	309.522	48.293	47.7774	396.193	126.098	90.6482	474.229	32.1205	137.112	468.408	31.4996	40.944	-0	0	0	510.303	1000.01	144.347	-200	0	0	-0	0	200	-0	200	0	
219	4.225	632.772	1441.22	164.037	786.199	1348.2	163.172	715.014	1384.17	335.744	700.667	1396.61	-4.7257	800.193	1185.5	167.367	534.434	1250.72	163.519	721.646	955.951	296.666	730.998	970.038	22.526	521.422	998.881	185.251	521.52	997.687	106.437	523.278	1047.54	151.142	619.578	1088.04	444.056	-0	0	0	-0	0	0	-0	0	0	685.9059999999999	813.404	441.498	688.665	823.652	397.022	638.554	819.1369999999999	448.514	818.3579999999999	1084.89	-82.0719	-0	0	0	-0	0	0	-0	0	0	1031.37	930.806	-26.0043	995.645	905.587	-43.8035	1013.53	945.1849999999999	14.9674	622.804	794.61	-7.00758	583.6950000000001	576.818	43.8024	655.74	653.239	61.8716	-0	0	0	-0	0	0	582.282	470.273	106.479	489.587	439.988	41.6405	345.4	209.23	49.0693	-0	0	0	-0	0	0	-0	0	0	673.888	778.7430000000001	324.09	769.827	582.889	282.638	788.6849999999999	723.55	301.932	-0	0	0	-0	0	0	872.3680000000001	533.443	217.571	798.643	384.922	291.193	870.798	189.595	276.11	893.0700000000001	330.942	211.904	-0	0	0	-0	0	0	840.068	54.1349	220.705	1130.55	112.443	227.092	1063.38	76.52760000000001	171.254	1052.87	66.1904	287.595	944.0700000000001	37.6604	274.519	982.481	143.713	228.827	1100.48	92.82899999999999	183.507	1094.36	87.4263	274.558	226.662	111.52	107.705	510.752	45.0854	91.66030000000001	435.28	33.1171	146.425	416.099	29.8799	33.6082	310.471	50.6457	47.8311	398.982	126.711	90.1768	474.419	31.882	137.105	468.586	31.1796	40.8369	-0	0	0	521.471	998.284	145.844	-200	0	0	-0	0	200	-0	200	0	
